<svg width="21" height="24" viewBox="0 0 21 24" fill="none" xmlns="http://www.w3.org/2000/svg">
<path d="M18.9069 4H2.09306C1.48938 4 1 4.48938 1 5.09306V21.9069C1 22.5106 1.48938 23 2.09306 23H18.9069C19.5106 23 20 22.5106 20 21.9069V5.09306C20 4.48938 19.5106 4 18.9069 4Z" stroke="#2660AD" stroke-linecap="round" stroke-linejoin="round"/>
<path d="M14.1324 3.85714V2.42857C14.1324 2.04969 14.2795 1.68633 14.5415 1.41842C14.8035 1.15051 15.1589 1 15.5294 1C15.8999 1 16.2553 1.15051 16.5173 1.41842C16.7793 1.68633 16.9265 2.04969 16.9265 2.42857V3.85714M1 7H20H1ZM4.07353 3.85714V2.42857C4.07353 2.04969 4.22072 1.68633 4.48272 1.41842C4.74472 1.15051 5.10007 1 5.47059 1V1C5.84111 1 6.19646 1.15051 6.45846 1.41842C6.72046 1.68633 6.86765 2.04969 6.86765 2.42857V3.85714H4.07353Z" stroke="#2660AD" stroke-linecap="round" stroke-linejoin="round"/>
</svg>
